<?xml version="1.0" standalone="no"?>
<!DOCTYPE svg PUBLIC "-//W3C//DTD SVG 20010904//EN"
 "http://www.w3.org/TR/2001/REC-SVG-20010904/DTD/svg10.dtd">
<svg version="1.0" xmlns="http://www.w3.org/2000/svg"
 width="1280.000000pt" height="960.000000pt" viewBox="0 0 1280.000000 960.000000"
 preserveAspectRatio="xMidYMid meet">

<g transform="translate(0.000000,960.000000) scale(0.100000,-0.100000)"
fill="#000000" stroke="none">
<path d="M6240 8071 c-52 -17 -89 -42 -126 -84 -22 -25 -187 -266 -369 -537
-222 -330 -333 -487 -338 -478 -24 41 -266 467 -278 490 -68 131 -270 402
-318 427 -41 23 -166 42 -223 36 -88 -10 -100 -25 -152 -183 -112 -342 -232
-750 -281 -962 -15 -63 -29 -121 -31 -128 -2 -8 -12 -11 -21 -8 -32 10 -657
167 -698 175 -42 9 -708 178 -835 213 -41 11 -131 35 -200 53 -252 66 -368 98
-485 132 -66 19 -131 37 -145 40 -21 4 -271 73 -469 129 -61 17 -111 12 -133
-14 -27 -30 -45 -74 -116 -283 -92 -267 -291 -830 -368 -1037 -19 -51 -34
-102 -34 -115 0 -58 67 -110 185 -146 22 -7 49 -16 60 -21 67 -27 144 -53 245
-79 63 -17 196 -57 295 -89 99 -32 262 -85 362 -118 101 -32 183 -62 183 -65
0 -3 -98 -13 -217 -23 -120 -10 -324 -26 -453 -36 -129 -11 -282 -22 -340 -24
-228 -11 -375 -27 -404 -44 -16 -9 -37 -33 -47 -52 -21 -40 -26 3 76 -620 96
-589 116 -711 135 -838 19 -131 32 -161 83 -193 30 -19 43 -20 252 -14 289 8
829 23 1030 30 297 9 509 15 895 26 212 5 511 14 665 19 153 5 280 8 282 6 2
-1 -15 -99 -37 -217 -22 -118 -42 -227 -45 -244 -3 -16 -21 -118 -41 -225 -19
-107 -42 -231 -50 -275 -8 -44 -21 -118 -29 -165 -9 -47 -25 -134 -35 -195
-32 -182 -96 -538 -134 -743 -58 -315 -57 -342 10 -387 32 -22 72 -27 449 -60
218 -19 643 -59 905 -86 113 -11 243 -23 290 -26 83 -5 86 -5 112 22 15 15 30
41 32 59 5 35 35 271 42 331 7 70 84 625 105 765 35 235 131 833 145 906 3 20
12 21 147 27 80 4 159 10 177 13 l32 7 -7 -89 c-50 -658 -125 -1240 -230
-1789 -24 -125 -21 -152 19 -189 l33 -32 254 -22 c497 -44 696 -62 862 -78
222 -20 217 -23 270 136 347 1058 414 1250 637 1835 34 88 68 179 77 203 10
29 22 44 39 48 29 7 170 1 179 -8 7 -7 -21 -912 -35 -1138 -13 -197 -26 -363
-46 -615 -16 -187 -16 -203 0 -236 26 -55 66 -73 171 -76 50 -2 227 -8 395
-14 168 -6 339 -13 380 -14 41 -1 154 -6 250 -10 225 -9 210 -20 250 175 143
700 212 1042 219 1080 19 106 163 806 168 813 2 4 32 7 67 7 l63 0 7 -632 c12
-977 19 -1207 38 -1243 23 -43 51 -65 90 -71 19 -4 118 6 219 20 101 14 292
39 424 55 132 17 294 37 360 46 286 38 425 54 503 61 69 6 89 11 114 33 l31
25 -6 175 c-4 96 -14 303 -22 460 -31 574 -45 851 -55 1071 -5 124 -17 353
-25 510 -8 157 -24 485 -35 730 -11 245 -27 585 -35 755 -18 363 -19 493 -5
618 6 51 19 187 30 302 56 575 71 732 85 870 63 605 64 618 48 653 -9 19 -27
41 -40 49 -25 17 -153 33 -408 53 -77 6 -192 15 -255 21 -187 16 -364 24 -550
24 -164 0 -178 -1 -220 -23 -110 -57 -193 -181 -291 -432 -8 -18 -12 -21 -18
-11 -13 21 -29 5 -41 -40 -13 -47 -6 -61 15 -33 14 18 14 17 5 -9 -20 -58 -40
-86 -55 -81 -8 4 -15 2 -15 -4 0 -6 -3 -19 -6 -29 -3 -10 1 -8 9 6 26 43 29 4
4 -51 -23 -51 -51 -118 -53 -128 -3 -17 -17 -39 -23 -36 -3 2 -7 -8 -7 -22 -1
-15 -8 -43 -17 -63 l-15 -37 -144 -6 c-359 -17 -1362 -23 -2008 -13 -377 5
-686 11 -688 13 -3 2 -330 910 -418 1159 -39 112 -53 138 -90 161 -28 19 -153
29 -194 15z m4698 -827 c100 -5 135 -11 139 -21 3 -8 0 -78 -6 -156 -6 -78
-20 -261 -31 -407 -11 -146 -24 -319 -30 -385 -34 -426 -36 -585 -10 -931 5
-71 16 -250 25 -399 8 -148 26 -445 40 -660 14 -214 30 -460 35 -545 5 -85 16
-263 24 -395 30 -457 56 -921 66 -1180 6 -143 13 -279 16 -302 6 -50 19 -45
-171 -68 -71 -9 -208 -28 -304 -41 -95 -14 -176 -22 -179 -19 -6 6 -13 364
-27 1370 -3 204 -10 386 -15 406 -5 19 -21 46 -34 58 l-25 23 -218 -16 c-302
-23 -547 -36 -681 -36 -114 0 -164 -11 -190 -42 -24 -30 -73 -234 -193 -808
-67 -324 -175 -857 -200 -995 -11 -60 -24 -114 -29 -118 -9 -10 -385 -5 -395
5 -4 4 0 51 9 105 60 366 160 1760 136 1892 -10 55 -26 68 -98 75 -300 33
-1094 64 -1161 46 -54 -14 -94 -57 -114 -122 -33 -107 -206 -679 -276 -913
-40 -132 -88 -289 -106 -350 -53 -172 -154 -503 -176 -580 -12 -38 -29 -95
-38 -125 l-18 -55 -141 0 c-77 0 -143 3 -146 6 -3 3 3 66 15 140 19 129 167
1170 208 1469 61 436 63 478 30 511 -18 18 -29 20 -87 15 -37 -3 -195 -15
-352 -26 -157 -11 -357 -27 -445 -35 -88 -8 -198 -17 -245 -20 -47 -4 -141
-13 -210 -22 -110 -13 -128 -18 -154 -41 -34 -32 -62 -91 -71 -152 -3 -25 -15
-90 -25 -145 -26 -137 -54 -287 -80 -430 -38 -213 -76 -414 -160 -858 -33
-176 -60 -328 -60 -338 0 -24 -9 -24 -202 1 -84 11 -196 24 -248 30 -52 5
-112 13 -134 16 l-38 6 6 62 c4 33 34 221 67 416 325 1931 332 1994 226 2029
-34 11 -360 3 -1367 -34 -223 -8 -542 -19 -710 -25 -168 -6 -422 -15 -565 -20
-143 -5 -337 -12 -431 -15 l-171 -6 -6 33 c-9 49 -40 216 -86 458 -23 118 -41
220 -41 227 0 16 148 23 1175 53 187 6 457 15 600 20 143 5 418 14 610 20 193
6 360 13 371 15 36 8 47 53 42 177 -5 148 -32 199 -129 248 -55 28 -435 154
-1454 480 -225 72 -526 170 -669 217 l-259 86 7 66 c6 67 30 164 67 281 41
127 121 340 129 340 4 0 54 -15 111 -34 215 -71 585 -181 824 -245 44 -12 116
-33 160 -46 44 -13 256 -77 470 -140 548 -163 762 -230 1138 -356 180 -60 334
-109 342 -109 22 0 25 11 36 132 12 132 70 477 113 673 9 39 16 74 16 78 0 27
36 -25 178 -263 l159 -265 65 -22 c91 -31 312 -68 385 -64 58 3 135 135 483
830 71 141 105 200 110 190 5 -8 33 -75 63 -149 91 -223 232 -552 265 -615 34
-67 72 -108 117 -125 60 -24 462 -30 1570 -24 1348 6 2021 18 2057 34 28 13
60 73 136 255 53 128 262 654 262 660 0 2 5 16 10 31 11 27 11 27 88 21 42 -4
137 -10 210 -13z"/>
</g>
</svg>
