<?xml version="1.0" standalone="no"?>
<!DOCTYPE svg PUBLIC "-//W3C//DTD SVG 20010904//EN"
 "http://www.w3.org/TR/2001/REC-SVG-20010904/DTD/svg10.dtd">
<svg version="1.0" xmlns="http://www.w3.org/2000/svg"
 width="955.000000pt" height="1000.000000pt" viewBox="0 0 955.000000 1000.000000"
 preserveAspectRatio="xMidYMid meet">

<g transform="translate(0.000000,1000.000000) scale(0.100000,-0.100000)"
fill="#000000" stroke="none">
<path d="M0 5000 l0 -5000 4775 0 4775 0 0 5000 0 5000 -4775 0 -4775 0 0
-5000z m9294 4724 c3 -9 6 -2144 6 -4745 l0 -4729 -4517 2 -4518 3 -3 4743 -2
4742 4514 0 c4107 0 4514 -1 4520 -16z"/>
<path d="M1335 8820 c-38 -4 -77 -17 -106 -35 -43 -26 -47 -32 -53 -79 -9 -75
-7 -232 4 -364 5 -64 17 -256 26 -427 15 -276 16 -482 10 -1880 -4 -863 -6
-1730 -4 -1925 2 -195 1 -733 -1 -1195 -3 -866 2 -1063 39 -1467 17 -189 19
-199 47 -237 l29 -40 295 3 c304 3 760 25 1051 51 92 8 299 20 460 25 161 6
491 17 733 25 397 14 491 14 965 1 289 -9 557 -18 595 -21 295 -23 923 -35
1847 -36 560 0 1022 2 1028 6 5 3 10 15 10 25 0 10 5 22 12 26 13 9 3 890 -14
1179 -15 255 -19 939 -7 1340 6 187 14 781 19 1320 5 539 14 1061 19 1160 30
523 36 734 34 1175 -3 570 -10 881 -23 975 -5 39 -9 124 -10 191 0 180 23 169
-425 185 -412 15 -1837 15 -2200 1 -181 -7 -741 -13 -1415 -13 -949 -1 -1151
1 -1355 15 -258 18 -1493 31 -1610 16z m1370 -200 c171 -6 400 -15 510 -20
261 -12 1967 -3 2525 13 497 14 1483 15 2019 1 307 -8 365 -11 372 -24 36 -70
47 -1447 16 -2090 -13 -266 -21 -673 -27 -1405 -5 -566 -12 -1078 -16 -1136
l-7 -107 -51 -6 c-91 -11 -495 -6 -741 9 -132 8 -285 15 -341 15 -56 0 -129 3
-162 6 l-61 7 5 41 c2 22 9 147 14 276 5 129 14 271 19 315 6 44 18 141 26
215 15 127 33 272 55 438 6 40 19 90 29 110 11 20 30 73 42 117 12 44 50 168
85 275 35 107 64 200 64 206 0 22 -39 60 -87 86 -66 36 -154 49 -256 38 -45
-5 -111 -11 -146 -15 -73 -7 -94 -19 -132 -75 -37 -56 -57 -117 -77 -246 l-17
-109 -55 -3 c-30 -2 -117 4 -195 12 -174 20 -643 46 -807 46 -162 0 -611 21
-620 29 -14 13 -56 180 -83 326 -15 83 -35 169 -45 192 -22 49 -44 59 -134 56
-52 -1 -63 -6 -93 -35 -38 -36 -78 -95 -137 -201 -21 -37 -40 -66 -43 -64 -2
3 -15 58 -28 123 -14 65 -30 122 -37 127 -39 27 -72 34 -112 25 -52 -12 -69
-16 -77 -17 -10 -2 -132 -151 -213 -262 -43 -57 -83 -104 -89 -104 -6 0 -34
74 -63 165 -92 296 -161 469 -293 743 l-62 127 -53 0 c-64 0 -99 -12 -242 -80
-60 -29 -165 -74 -234 -100 -163 -63 -197 -78 -205 -90 -8 -13 47 -170 105
-300 26 -58 106 -226 177 -375 133 -276 146 -305 137 -305 -14 0 -678 453
-719 491 -11 10 -39 21 -62 25 -35 5 -52 2 -95 -20 -45 -22 -66 -44 -133 -136
-103 -140 -181 -270 -188 -312 -5 -30 0 -38 65 -101 38 -38 129 -107 201 -154
73 -47 150 -98 172 -114 22 -16 93 -65 158 -110 66 -45 158 -113 205 -151 113
-90 290 -209 583 -391 129 -80 246 -155 259 -165 24 -20 24 -21 12 -93 -13
-73 -94 -450 -113 -521 -9 -37 -11 -38 -55 -38 -25 0 -86 -4 -137 -10 -147
-15 -564 -31 -1077 -39 -261 -5 -482 -12 -491 -15 -15 -7 -17 19 -24 266 -4
150 -3 989 2 1863 9 1647 8 1769 -26 2271 -24 352 -26 469 -8 481 6 4 190 10
407 13 428 5 445 5 905 -10z m359 -2028 c103 -204 224 -532 320 -862 57 -197
76 -241 119 -274 18 -14 37 -26 41 -26 4 0 34 23 67 52 41 35 62 62 69 87 5
20 30 70 54 111 49 82 175 251 192 257 6 2 15 -34 23 -89 18 -131 50 -299 63
-328 6 -14 28 -37 48 -51 l37 -27 57 52 c53 47 60 60 102 171 48 130 131 305
144 305 4 0 11 -26 15 -57 4 -32 27 -127 51 -212 38 -135 49 -160 80 -192 l35
-36 222 -7 c122 -3 371 -11 552 -16 182 -4 353 -11 380 -14 28 -4 194 -18 370
-32 l320 -25 46 25 c67 38 99 70 92 94 -6 26 14 190 34 270 18 70 6 64 154 82
130 15 132 14 109 -63 -48 -167 -113 -366 -131 -399 -13 -25 -25 -83 -35 -165
-9 -71 -19 -157 -24 -193 -25 -192 -30 -237 -44 -365 -25 -225 -45 -528 -57
-860 -6 -170 -17 -353 -25 -405 -14 -99 -80 -389 -89 -399 -6 -6 -152 22 -219
41 -44 13 -43 5 -7 178 27 128 48 317 67 611 17 249 19 343 8 361 -3 5 -27 19
-53 30 -56 24 -98 20 -256 -25 l-110 -32 -27 -55 c-33 -67 -63 -191 -78 -325
-7 -55 -26 -161 -45 -235 -30 -125 -57 -260 -70 -352 -7 -44 -5 -44 -126 -22
-77 14 -90 20 -95 39 -3 12 19 134 49 271 31 137 61 285 67 329 7 44 25 134
41 200 44 180 41 191 -49 230 -39 17 -61 18 -280 11 -130 -4 -377 -11 -549
-15 -243 -6 -316 -11 -329 -22 -26 -21 -50 -87 -74 -196 -11 -54 -29 -125 -40
-158 -11 -33 -40 -152 -65 -265 -60 -268 -95 -402 -109 -417 -13 -14 -82 -2
-102 19 -10 11 -6 74 26 348 22 184 44 378 50 430 6 53 17 120 25 150 16 58
20 187 7 207 -11 18 -93 45 -132 44 -42 -2 -178 -30 -202 -43 -26 -13 -56 -78
-79 -171 -11 -45 -52 -192 -90 -327 -39 -135 -77 -290 -86 -345 -25 -159 -15
-151 -129 -101 -66 28 -98 47 -100 60 -4 28 61 336 137 641 37 154 72 296 77
316 6 25 5 44 -4 61 -7 13 -92 75 -189 138 -438 286 -629 414 -740 499 -226
172 -450 333 -547 393 -53 32 -115 76 -138 96 l-42 37 44 65 c24 36 61 93 81
126 21 34 45 65 54 69 19 7 6 16 598 -394 203 -141 393 -268 422 -283 l53 -27
50 53 c28 29 50 61 50 71 0 10 -9 36 -20 59 -10 23 -51 120 -89 216 -38 96
-131 301 -206 455 -153 311 -218 455 -209 464 10 11 319 149 336 150 12 1 29
-20 52 -67z m869 -2425 c-3 -19 -13 -94 -22 -168 l-16 -134 -62 -3 c-47 -2
-63 0 -63 10 0 29 91 313 103 320 6 4 24 8 39 8 25 0 26 -2 21 -33z m1500 -74
c5 -10 -32 -212 -42 -233 -6 -12 -32 -16 -117 -17 -60 -2 -220 -7 -356 -13
-363 -15 -478 -14 -478 5 0 8 12 64 26 124 23 101 27 110 52 117 15 4 194 10
397 14 204 3 402 7 442 8 39 1 74 -1 76 -5z m700 -135 c-3 -51 -7 -95 -9 -97
-2 -2 -42 -6 -89 -8 l-85 -5 1 34 c0 18 8 56 18 83 17 50 18 50 82 67 35 9 70
16 76 17 10 1 11 -21 6 -91z m1277 -269 c324 -17 556 -19 652 -4 36 6 41 -15
33 -119 l-7 -83 -69 -5 c-57 -4 -72 -9 -88 -29 -11 -14 -18 -33 -15 -44 3 -11
5 -31 6 -45 2 -43 16 -50 93 -50 82 0 85 -2 85 -92 l0 -48 -100 0 c-95 0 -100
-1 -116 -25 -12 -19 -14 -36 -9 -75 9 -63 23 -70 134 -70 l78 0 6 -137 c3 -76
11 -238 18 -360 7 -122 9 -226 5 -230 -4 -4 -55 -10 -112 -11 -118 -4 -130
-12 -120 -80 3 -20 5 -44 6 -54 0 -24 53 -38 147 -38 l84 0 -3 -87 -3 -88 -74
0 c-63 0 -75 -3 -87 -21 -12 -17 -12 -30 -2 -74 10 -45 17 -55 45 -66 18 -8
55 -14 83 -14 l50 0 0 -158 0 -159 -202 -6 c-252 -9 -498 -8 -518 1 -8 4 -16
16 -18 27 -6 34 -51 94 -75 99 -12 3 -66 7 -120 10 -95 4 -98 4 -113 -20 -14
-20 -14 -32 -6 -66 6 -23 9 -45 6 -48 -9 -8 -889 -13 -972 -5 -58 5 -71 9 -62
20 15 18 -1 53 -44 94 -36 34 -36 35 -166 44 -122 9 -132 8 -146 -9 -14 -19
-14 -78 2 -118 7 -17 1 -18 -137 -11 -217 11 -221 12 -261 65 -31 41 -39 46
-88 52 -30 3 -90 6 -132 7 -72 1 -79 -1 -94 -23 -8 -14 -14 -35 -12 -48 l3
-23 -265 4 -265 3 -40 44 c-23 24 -46 44 -51 44 -5 1 -29 5 -54 10 -25 5 -97
6 -162 3 -107 -5 -117 -8 -126 -28 -5 -12 -8 -33 -5 -47 5 -25 2 -27 -38 -32
-24 -2 -278 -12 -564 -21 -286 -8 -583 -20 -660 -26 -77 -6 -195 -13 -262 -17
-121 -7 -123 -7 -123 14 0 30 -55 103 -82 108 -13 3 -73 8 -134 11 -110 6
-110 6 -123 -19 -16 -30 -9 -91 14 -116 15 -16 14 -18 -12 -24 -15 -4 -143 -9
-284 -12 l-256 -5 -6 31 c-4 17 -14 118 -22 223 -8 106 -17 210 -19 232 l-5
40 147 -3 c147 -4 147 -4 171 21 29 32 24 63 -18 110 -29 32 -30 32 -133 34
-57 2 -118 3 -135 3 l-33 0 0 128 c0 109 2 123 13 102 12 -24 17 -25 120 -28
134 -3 173 11 163 61 -4 17 -21 46 -38 64 l-32 33 -118 0 -118 0 0 43 c0 24 3
92 7 151 l6 107 89 -7 c91 -7 172 6 181 30 7 17 -15 69 -41 102 -23 28 -28 29
-125 34 l-102 5 -3 130 c-2 72 0 171 3 221 l7 91 78 6 c96 8 150 28 150 56 0
12 -12 44 -28 72 -26 48 -28 50 -62 44 -19 -3 -58 -8 -86 -12 l-51 -5 -7 42
c-4 24 -3 46 1 50 21 18 274 30 636 30 392 0 818 13 992 30 50 4 93 5 96 2 3
-4 -1 -42 -8 -84 l-15 -78 -63 0 c-91 0 -115 -29 -91 -110 11 -38 18 -46 47
-53 19 -5 72 -7 119 -4 85 4 85 4 212 -49 132 -56 175 -64 231 -41 49 21 59
39 62 120 1 40 6 89 10 108 l8 34 12 -35 c15 -46 47 -62 113 -57 60 4 58 9 42
-106 -19 -126 -12 -117 -83 -117 -81 0 -102 -7 -115 -35 -13 -28 3 -104 26
-122 20 -16 169 -17 209 -2 15 5 37 21 48 34 19 22 22 23 80 10 119 -27 210
-14 243 33 11 15 22 54 26 87 4 33 22 112 41 175 18 63 37 129 41 145 l7 30
10 -42 c5 -23 17 -45 26 -48 26 -10 209 -6 252 5 57 16 64 38 29 93 -16 25
-38 50 -48 56 -26 14 -244 2 -255 -13 -4 -6 -5 7 -1 29 4 22 10 45 15 51 6 7
101 13 271 17 145 4 361 10 481 14 l217 6 0 -21 c0 -12 -13 -82 -29 -155 -16
-72 -32 -148 -35 -167 l-6 -35 -111 0 c-109 0 -112 -1 -132 -27 -19 -25 -19
-28 -2 -71 21 -56 44 -67 146 -67 74 0 80 -2 88 -23 5 -13 15 -27 22 -33 24
-19 251 -54 339 -53 151 1 183 27 193 154 8 109 28 225 38 225 5 0 9 -9 9 -20
0 -24 45 -34 135 -28 l65 4 0 -28 c0 -23 -9 -67 -45 -225 -5 -21 -11 -23 -84
-23 -72 0 -79 -2 -89 -24 -10 -22 -5 -65 13 -108 11 -27 61 -38 169 -38 74 0
129 -7 205 -25 172 -42 236 -48 290 -29 69 26 85 45 87 106 1 29 18 121 38
205 47 197 66 325 66 444 l0 96 158 -4 c86 -2 321 -13 522 -24z m-1294 -61
c-4 -35 -9 -80 -12 -101 -6 -38 -6 -38 -26 -20 -16 14 -37 18 -93 18 -41 0
-77 4 -81 7 -6 7 13 133 23 151 2 4 47 7 100 7 l95 0 -6 -62z m-2242 -33 c-3
-44 -9 -83 -13 -88 -4 -4 -18 4 -31 18 -19 20 -33 25 -75 25 -28 0 -56 -5 -63
-12 -15 -15 -15 7 2 77 10 46 14 50 46 56 19 3 59 5 88 5 l53 -1 -7 -80z"/>
<path d="M2040 7179 c0 -4 -10 -11 -22 -15 -24 -7 -47 -32 -48 -50 0 -7 12
-25 28 -42 15 -16 53 -82 85 -146 46 -92 67 -123 99 -146 l40 -29 39 20 c21
10 39 26 39 35 0 27 -22 104 -30 104 -4 0 -32 46 -61 102 -64 123 -98 164
-139 170 -17 3 -30 1 -30 -3z"/>
<path d="M2409 7104 c-49 -26 -51 -34 -38 -129 13 -89 21 -105 75 -141 18 -12
26 -12 57 1 19 8 38 19 42 25 12 20 -39 240 -58 252 -17 11 -48 8 -78 -8z"/>
<path d="M1857 6788 c-16 -17 -27 -40 -25 -52 5 -36 175 -147 225 -146 20 1
73 43 73 60 0 23 -46 99 -60 100 -9 0 -40 16 -70 35 -71 44 -106 45 -143 3z"/>
<path d="M1559 6578 c-24 -19 -49 -60 -49 -80 0 -9 7 -23 15 -31 15 -15 372
-107 416 -107 30 0 65 57 54 89 -14 45 -75 66 -400 138 -11 2 -27 -2 -36 -9z"/>
<path d="M6815 3637 c-20 -31 -13 -115 11 -133 25 -20 187 -28 221 -12 39 19
42 57 6 113 -25 39 -32 44 -64 45 -20 0 -63 3 -96 6 -58 6 -62 5 -78 -19z"/>
<path d="M7417 3629 c-11 -17 -14 -39 -10 -76 5 -47 8 -53 37 -64 17 -7 82
-13 145 -15 172 -5 204 23 146 123 l-26 43 -93 0 c-51 0 -114 3 -139 6 -40 6
-47 4 -60 -17z"/>
<path d="M4965 3610 c-25 -27 -14 -107 17 -134 20 -16 37 -17 133 -14 155 6
194 29 156 92 -46 74 -51 76 -175 76 -100 0 -115 -2 -131 -20z"/>
<path d="M2137 3554 c-3 -3 -63 -6 -134 -7 l-128 -2 -3 -41 c-4 -54 12 -92 45
-106 32 -13 261 -19 269 -6 3 4 14 8 24 8 31 0 43 34 26 69 -34 64 -80 104
-99 85z"/>
<path d="M2612 3550 c-51 -4 -98 -12 -104 -18 -15 -15 -13 -62 5 -104 11 -27
22 -37 47 -42 81 -16 223 5 260 39 17 16 18 20 5 45 -28 55 -65 90 -93 88 -15
0 -69 -4 -120 -8z"/>
<path d="M7370 3303 c-25 -32 -25 -69 0 -110 l20 -33 92 -1 c182 -2 238 10
238 52 0 17 -24 71 -47 108 -2 2 -66 5 -142 7 l-140 3 -21 -26z"/>
<path d="M6862 3279 c-18 -28 3 -126 29 -134 10 -3 67 -8 126 -9 105 -4 161 6
176 31 10 17 -12 79 -38 107 -24 25 -27 26 -152 26 -119 0 -129 -2 -141 -21z"/>
<path d="M2180 3251 c-91 -6 -95 -7 -104 -32 -6 -18 -5 -41 5 -73 12 -41 17
-47 47 -52 46 -9 239 11 258 26 20 17 18 47 -7 86 -24 39 -48 55 -81 52 -13
-1 -66 -4 -118 -7z"/>
<path d="M2705 3241 c-42 -5 -51 -10 -59 -33 -10 -29 8 -103 28 -116 6 -3 63
-5 126 -3 159 3 185 23 138 98 -35 58 -90 71 -233 54z"/>
<path d="M1637 3219 c-37 -4 -75 -13 -83 -20 -18 -14 -16 -73 3 -111 13 -27
16 -28 92 -28 106 0 163 9 190 30 22 16 23 20 12 53 -7 20 -21 47 -32 61 -23
29 -49 31 -182 15z"/>
<path d="M4483 3201 c-25 -40 -9 -122 26 -137 9 -3 66 -8 126 -11 107 -5 112
-5 139 19 34 29 31 45 -18 102 l-33 39 -114 4 c-107 4 -115 3 -126 -16z"/>
<path d="M3210 3153 c-124 -6 -136 -17 -119 -106 11 -51 13 -55 45 -60 46 -8
185 2 212 15 35 18 29 66 -14 116 -19 23 -41 41 -47 40 -7 -1 -41 -3 -77 -5z"/>
<path d="M1966 2926 c-14 -22 -14 -29 -1 -74 18 -59 19 -59 183 -72 86 -6 113
-4 136 7 24 13 27 19 22 45 -3 17 -20 47 -38 67 -28 32 -39 37 -92 42 -34 4
-91 7 -127 8 -60 1 -68 -1 -83 -23z"/>
<path d="M6901 2891 c-13 -23 -5 -92 14 -117 22 -30 247 -46 314 -23 38 13 41
44 11 106 -23 49 -26 50 -197 52 -123 2 -132 1 -142 -18z"/>
<path d="M4627 2883 c-20 -23 -21 -33 -5 -85 15 -50 30 -57 133 -68 91 -9 142
-1 168 28 15 16 14 21 -6 61 -12 24 -31 49 -42 56 -11 7 -67 16 -125 20 -96 6
-107 5 -123 -12z"/>
<path d="M3430 2868 c-13 -18 -14 -34 -7 -75 8 -48 11 -53 45 -65 52 -18 240
-18 251 1 12 19 -3 66 -33 106 -22 28 -32 33 -88 38 -35 3 -83 9 -108 12 -39
5 -47 3 -60 -17z"/>
<path d="M4154 2883 c-65 -3 -85 -8 -99 -23 -16 -18 -17 -24 -4 -72 17 -63 39
-78 120 -78 55 0 144 23 155 41 11 18 -18 78 -52 109 -19 16 -36 29 -37 28 -1
-1 -39 -4 -83 -5z"/>
<path d="M5281 2869 c-21 -23 -20 -58 3 -109 9 -20 21 -26 61 -32 137 -18 246
-2 262 38 8 21 -23 79 -55 105 -21 16 -42 19 -138 19 -103 0 -115 -2 -133 -21z"/>
<path d="M2740 2849 c-95 -10 -120 -27 -120 -81 0 -32 23 -84 41 -90 6 -2 37
-1 68 3 31 4 83 8 116 8 70 1 105 20 105 57 0 13 -9 33 -19 43 -11 11 -27 31
-36 45 -19 29 -19 29 -155 15z"/>
<path d="M7604 2809 c-25 -26 -25 -28 -12 -80 l13 -54 109 -9 c132 -11 160 -4
164 42 2 22 -5 48 -22 77 l-26 44 -101 3 c-97 3 -101 2 -125 -23z"/>
<path d="M6294 2739 c-14 -15 -14 -25 -3 -73 11 -52 15 -57 48 -66 47 -13 257
-13 282 0 25 14 24 53 -4 110 l-22 45 -143 1 c-124 1 -144 -1 -158 -17z"/>
<path d="M5735 2690 c-14 -15 -16 -29 -11 -63 12 -78 19 -82 149 -82 99 0 118
3 136 19 12 11 21 28 21 39 0 25 -37 84 -60 97 -10 6 -63 10 -118 10 -86 0
-101 -3 -117 -20z"/>
<path d="M1812 2625 c-13 -29 -3 -86 21 -119 19 -27 226 -45 260 -23 32 21 25
64 -18 110 -30 32 -39 35 -106 41 -41 4 -90 9 -110 12 -31 4 -37 2 -47 -21z"/>
<path d="M6899 2572 c-10 -14 -17 -32 -15 -41 3 -9 8 -32 12 -51 3 -19 12 -38
18 -42 6 -4 68 -8 139 -8 113 0 129 2 146 19 16 16 18 26 12 48 -15 48 -33 82
-50 89 -9 4 -67 8 -129 9 -110 2 -113 1 -133 -23z"/>
<path d="M2979 2558 c-14 -26 -5 -118 13 -130 7 -4 68 -8 135 -8 120 0 123 1
139 25 20 30 13 63 -22 104 l-26 31 -114 0 c-106 0 -114 -1 -125 -22z"/>
<path d="M3593 2521 c-26 -42 -6 -122 34 -140 36 -16 213 -25 246 -12 35 14
36 48 2 106 -28 47 -22 45 -200 61 -64 5 -71 4 -82 -15z"/>
<path d="M4180 2514 c-11 -28 2 -97 23 -122 7 -9 35 -13 91 -11 45 1 117 -2
161 -6 78 -7 82 -7 110 18 l30 26 -27 48 c-35 64 -60 71 -236 72 l-142 1 -10
-26z"/>
<path d="M5074 2515 c-14 -22 -15 -31 -4 -70 7 -25 19 -50 26 -56 19 -15 306
-8 326 8 22 19 10 66 -27 107 l-33 36 -136 0 c-134 0 -136 0 -152 -25z"/>
<path d="M2403 2511 c-16 -26 -16 -51 -1 -101 15 -46 24 -50 138 -50 61 0 92
4 108 16 25 17 29 56 7 74 -8 7 -15 19 -15 26 0 8 -4 14 -10 14 -5 0 -10 7
-10 15 0 11 -13 15 -52 15 -29 0 -75 3 -103 6 -43 5 -52 3 -62 -15z"/>
<path d="M7565 2450 c-23 -25 -22 -119 1 -136 23 -18 169 -27 209 -14 54 18
61 41 32 104 -24 51 -26 53 -72 59 -93 13 -150 9 -170 -13z"/>
<path d="M6217 2433 c-73 -5 -91 -27 -81 -99 3 -27 10 -53 15 -59 16 -16 269
-7 297 11 28 18 29 55 1 104 -29 51 -46 54 -232 43z"/>
<path d="M1930 2289 c-12 -22 -9 -68 8 -110 12 -30 27 -34 152 -44 74 -6 88
-5 108 11 20 17 21 23 12 54 -20 69 -47 87 -146 99 -118 15 -122 14 -134 -10z"/>
<path d="M6755 2266 c-13 -19 -14 -31 -3 -75 14 -61 6 -58 181 -65 129 -5 170
2 181 30 8 21 -14 85 -39 110 -23 23 -30 24 -164 24 -136 0 -141 -1 -156 -24z"/>
<path d="M4937 2242 c-17 -19 -18 -26 -6 -76 13 -60 13 -60 106 -72 63 -8 182
12 190 33 7 18 -10 51 -47 92 -26 28 -33 30 -126 37 -92 6 -100 5 -117 -14z"/>
<path d="M3102 2226 c-9 -19 -8 -37 4 -75 14 -48 16 -50 62 -59 105 -23 170
-25 197 -8 31 20 33 58 5 104 -25 41 -44 48 -161 56 -95 6 -96 6 -107 -18z"/>
<path d="M3603 2184 c-14 -23 -15 -32 -4 -73 7 -25 17 -50 22 -56 15 -15 149
-17 204 -2 50 14 50 14 49 54 0 27 -9 51 -25 71 -24 31 -24 31 -126 31 -100 1
-103 0 -120 -25z"/>
<path d="M5693 2203 c-76 -5 -99 -29 -88 -94 12 -68 20 -71 169 -66 208 8 227
25 145 128 -34 43 -32 43 -226 32z"/>
<path d="M4346 2145 c-14 -22 -15 -31 -3 -77 12 -49 15 -53 53 -61 21 -5 87
-7 145 -5 113 3 139 13 139 52 0 30 -47 95 -76 107 -14 5 -74 9 -134 9 -104 0
-108 -1 -124 -25z"/>
<path d="M2592 2128 c-17 -17 -15 -100 4 -127 16 -22 20 -22 145 -19 94 2 132
7 138 16 10 17 2 64 -13 77 -7 6 -21 22 -30 38 -18 27 -20 27 -125 27 -70 0
-111 -4 -119 -12z"/>
<path d="M6452 2050 c-13 -21 -14 -69 -3 -109 8 -29 27 -35 161 -56 90 -14
162 -13 189 5 20 12 5 60 -32 104 l-33 38 -129 19 c-72 10 -132 18 -135 19 -3
0 -11 -9 -18 -20z"/>
<path d="M7515 2042 c-156 -3 -164 -8 -157 -85 6 -78 11 -80 190 -75 91 3 157
9 164 16 22 22 -25 143 -57 146 -5 1 -68 0 -140 -2z"/>
<path d="M2037 1929 c-15 -20 -14 -35 4 -95 12 -39 25 -44 162 -51 94 -5 110
-4 127 12 28 25 25 54 -10 102 l-30 40 -91 6 c-136 10 -146 9 -162 -14z"/>
<path d="M3195 1917 c-12 -25 -12 -35 2 -75 8 -26 20 -50 26 -54 5 -3 53 -9
106 -13 99 -7 138 0 173 32 15 14 15 17 0 46 -9 18 -29 43 -46 57 -27 22 -42
26 -139 30 l-108 5 -14 -28z"/>
<path d="M3848 1943 c-23 -6 -47 -46 -44 -74 1 -13 9 -37 17 -54 l14 -30 127
0 c108 0 129 3 146 18 18 16 19 23 10 45 -6 15 -29 44 -50 65 -39 37 -39 37
-121 36 -45 -1 -90 -3 -99 -6z"/>
<path d="M5076 1902 c-17 -34 -6 -110 19 -128 21 -16 171 -28 230 -20 36 6 46
12 51 31 8 32 -1 54 -36 92 -27 30 -35 33 -112 38 -46 3 -95 8 -110 10 -22 4
-31 -1 -42 -23z"/>
<path d="M4455 1853 c-21 -31 -9 -110 19 -128 14 -9 56 -15 121 -16 101 -1
149 9 158 33 6 17 -19 65 -52 99 -25 26 -32 28 -129 31 -97 3 -104 2 -117 -19z"/>
<path d="M5778 1866 c-18 -9 -23 -20 -24 -50 -1 -42 21 -96 39 -97 7 0 59 -4
116 -8 113 -8 186 1 195 25 7 18 -15 63 -48 99 -25 27 -31 28 -193 39 -35 2
-72 -1 -85 -8z"/>
<path d="M6925 1729 c-13 -24 -13 -34 1 -77 12 -35 23 -52 38 -56 43 -12 197
-6 231 8 30 13 35 20 35 48 0 23 -10 45 -29 68 l-29 35 -116 1 -117 1 -14 -28z"/>
<path d="M7550 1753 c-48 -9 -63 -32 -57 -92 3 -30 11 -57 18 -61 23 -15 278
-23 309 -10 39 16 39 48 0 104 l-29 43 -96 7 c-53 4 -102 9 -108 10 -7 2 -23
1 -37 -1z"/>
<path d="M2587 1722 c-20 -21 -22 -56 -6 -100 13 -38 18 -39 144 -47 55 -3
132 -8 172 -11 81 -6 113 5 113 40 0 28 -24 77 -47 99 -26 23 -121 37 -248 37
-96 0 -114 -3 -128 -18z"/>
<path d="M1540 1706 c-12 -34 8 -104 36 -122 16 -11 53 -16 121 -17 87 -2 101
0 130 21 35 25 35 47 -2 93 -33 42 -57 49 -170 49 -102 0 -106 -1 -115 -24z"/>
<path d="M6345 1646 c-21 -31 -16 -100 8 -124 16 -15 218 -51 295 -52 57 0
102 23 102 54 0 13 -18 43 -39 68 l-39 44 -135 13 c-74 7 -143 15 -155 18 -14
3 -25 -3 -37 -21z"/>
<path d="M3295 1629 c-18 -34 -1 -105 29 -124 12 -8 67 -16 136 -20 105 -6
118 -4 148 15 41 25 37 48 -19 105 l-39 40 -121 5 -121 5 -13 -26z"/>
</g>
</svg>
